<svg width="91" height="91" viewBox="0 0 91 91" fill="none" xmlns="http://www.w3.org/2000/svg">
  <circle cx="45.5" cy="45.5" r="45.5" fill="white" />
  <path
    d="M65 63.5732C65 63.9516 64.8497 64.3145 64.5821 64.5821C64.3145 64.8497 63.9516 65 63.5732 65H27.4268C27.0484 65 26.6855 64.8497 26.4179 64.5821C26.1503 64.3145 26 63.9516 26 63.5732C26 63.1948 26.1503 62.8318 26.4179 62.5642C26.6855 62.2967 27.0484 62.1463 27.4268 62.1463H63.5732C63.9516 62.1463 64.3145 62.2967 64.5821 62.5642C64.8497 62.8318 65 63.1948 65 63.5732ZM63.5732 52.6341H40.7439C37.5904 52.6341 34.5661 51.3814 32.3362 49.1516C30.1064 46.9217 28.8537 43.8974 28.8537 40.7439C28.8537 37.5904 30.1064 34.5661 32.3362 32.3362C34.5661 30.1064 37.5904 28.8537 40.7439 28.8537H63.5732C63.9516 28.8537 64.3145 28.7033 64.5821 28.4358C64.8497 28.1682 65 27.8052 65 27.4268C65 27.0484 64.8497 26.6855 64.5821 26.4179C64.3145 26.1503 63.9516 26 63.5732 26H40.7439C36.8336 26 33.0834 27.5534 30.3184 30.3184C27.5534 33.0834 26 36.8336 26 40.7439C26 44.6542 27.5534 48.4044 30.3184 51.1694C33.0834 53.9344 36.8336 55.4878 40.7439 55.4878H63.5732C63.9516 55.4878 64.3145 55.3375 64.5821 55.0699C64.8497 54.8023 65 54.4394 65 54.061C65 53.6826 64.8497 53.3196 64.5821 53.0521C64.3145 52.7845 63.9516 52.6341 63.5732 52.6341Z"
    fill="black" />
</svg>